<svg width="300" height="296" viewBox="0 0 300 296" fill="none" xmlns="http://www.w3.org/2000/svg">
<path d="M10.816 282C9.28 282 8.10667 281.765 7.296 281.296C6.48533 280.784 5.90933 279.952 5.568 278.8C5.22667 277.605 5.056 275.899 5.056 273.68V239.76H13.376V273.68C13.376 275.856 13.6747 277.477 14.272 278.544C14.8693 279.568 16.064 280.08 17.856 280.08H18.496V282H10.816ZM24.3655 259.28C23.2135 256.891 22.2322 255.227 21.4215 254.288C20.6108 253.307 19.6935 252.773 18.6695 252.688V251.408L21.0375 251.28C23.8962 251.28 26.2855 251.835 28.2055 252.944C30.1682 254.053 31.8748 256.165 33.3255 259.28L38.9575 271.568L47.6615 251.92H51.1175L37.4855 282.64H35.1815L24.3655 259.28ZM57.3255 292.56C59.6722 292.56 61.5708 292.112 63.0215 291.216C64.4722 290.32 65.6455 288.699 66.5415 286.352L67.8855 282.896L56.3655 257.68C54.9575 254.608 52.9735 252.901 50.4135 252.56V251.28H56.0455C57.9228 251.28 59.5868 251.749 61.0375 252.688C62.4882 253.584 63.5975 254.821 64.3655 256.4L71.7255 272.528L79.5335 251.92H82.9255L69.9975 286.16C68.8028 289.488 67.4162 291.749 65.8375 292.944C64.2588 294.181 62.2748 294.8 59.8855 294.8H57.3255V292.56ZM106.08 248.08C106.08 245.904 105.781 244.304 105.184 243.28C104.587 242.213 103.392 241.68 101.6 241.68H100.96V239.76H108.64C110.176 239.76 111.349 240.016 112.16 240.528C112.971 241.04 113.547 241.893 113.888 243.088C114.229 244.24 114.4 245.904 114.4 248.08V279.12H136.48V282H106.08V248.08ZM152.651 282.64C149.707 282.64 147.125 281.957 144.907 280.592C142.688 279.227 140.96 277.371 139.723 275.024C138.528 272.635 137.931 269.947 137.931 266.96C137.931 263.632 138.528 260.795 139.723 258.448C140.96 256.101 142.645 254.331 144.779 253.136C146.912 251.899 149.323 251.28 152.01 251.28C154.656 251.28 157.045 251.813 159.179 252.88C161.312 253.947 162.997 255.461 164.235 257.424C165.472 259.344 166.091 261.563 166.091 264.08C166.091 264.891 166.048 265.808 165.963 266.832L165.835 268.112H146.571C146.571 272.165 147.189 275.131 148.427 277.008C149.664 278.843 151.392 279.76 153.611 279.76C155.659 279.76 157.365 279.312 158.731 278.416C160.139 277.477 161.483 276.155 162.763 274.448L164.747 275.92C163.509 277.84 161.952 279.44 160.075 280.72C158.24 282 155.765 282.64 152.651 282.64ZM157.451 265.232C157.451 261.221 156.981 258.384 156.043 256.72C155.104 255.013 153.76 254.16 152.01 254.16C150.389 254.16 149.067 255.035 148.043 256.784C147.061 258.491 146.571 261.307 146.571 265.232H157.451ZM173.245 260.24C173.245 258.064 172.946 256.464 172.349 255.44C171.794 254.373 170.621 253.84 168.829 253.84H168.189V251.92H174.525C175.976 251.92 177.106 252.112 177.917 252.496C178.77 252.837 179.432 253.435 179.901 254.288C182.077 252.283 185.192 251.28 189.245 251.28C193.298 251.28 196.328 252.24 198.333 254.16C200.381 256.037 201.405 259.003 201.405 263.056V282H193.085V262.992C193.085 260.048 192.53 257.893 191.421 256.528C190.354 255.163 188.882 254.48 187.005 254.48C185.682 254.48 184.509 254.672 183.485 255.056C182.504 255.397 181.714 255.867 181.117 256.464L181.309 257.36C181.48 257.872 181.565 258.704 181.565 259.856V282H173.245V260.24ZM220.746 282.64C216.436 282.64 213.108 281.189 210.762 278.288C208.458 275.344 207.306 271.568 207.306 266.96C207.306 262.352 208.479 258.597 210.826 255.696C213.215 252.752 216.628 251.28 221.066 251.28C222.602 251.28 224.244 251.6 225.994 252.24C226.634 252.539 227.231 252.859 227.786 253.2V248.08C227.786 245.904 227.487 244.304 226.89 243.28C226.292 242.213 225.098 241.68 223.306 241.68H222.666V239.76H230.346C231.882 239.76 233.055 240.016 233.866 240.528C234.676 241.04 235.252 241.893 235.594 243.088C235.935 244.24 236.106 245.904 236.106 248.08V282H230.666L228.426 279.12H228.106C227.722 279.717 227.124 280.315 226.314 280.912C224.863 282.064 223.007 282.64 220.746 282.64ZM222.026 279.76C223.604 279.76 225.034 279.077 226.314 277.712C226.783 277.243 227.274 276.539 227.786 275.6V256.08C227.359 255.739 226.847 255.419 226.25 255.12C224.884 254.48 223.583 254.16 222.346 254.16C218.079 254.16 215.946 258.427 215.946 266.96C215.946 270.928 216.415 274.064 217.354 276.368C218.335 278.629 219.892 279.76 222.026 279.76ZM257.026 282.64C254.082 282.64 251.5 281.957 249.282 280.592C247.063 279.227 245.335 277.371 244.098 275.024C242.903 272.635 242.306 269.947 242.306 266.96C242.306 263.632 242.903 260.795 244.098 258.448C245.335 256.101 247.02 254.331 249.154 253.136C251.287 251.899 253.698 251.28 256.385 251.28C259.031 251.28 261.42 251.813 263.554 252.88C265.687 253.947 267.372 255.461 268.61 257.424C269.847 259.344 270.466 261.563 270.466 264.08C270.466 264.891 270.423 265.808 270.338 266.832L270.21 268.112H250.946C250.946 272.165 251.564 275.131 252.802 277.008C254.039 278.843 255.767 279.76 257.986 279.76C260.034 279.76 261.74 279.312 263.106 278.416C264.514 277.477 265.858 276.155 267.138 274.448L269.122 275.92C267.884 277.84 266.327 279.44 264.45 280.72C262.615 282 260.14 282.64 257.026 282.64ZM261.826 265.232C261.826 261.221 261.356 258.384 260.418 256.72C259.479 255.013 258.135 254.16 256.385 254.16C254.764 254.16 253.442 255.035 252.418 256.784C251.436 258.491 250.946 261.307 250.946 265.232H261.826ZM296.884 252.56C297.652 253.115 298.207 253.733 298.548 254.416C298.889 255.056 299.06 255.397 299.06 255.44L295.796 257.936C295.497 257.552 295.113 257.147 294.644 256.72C293.705 255.867 292.617 255.44 291.38 255.44C288.905 255.44 287.007 256.101 285.684 257.424L285.812 258.384C285.897 259.152 285.94 259.856 285.94 260.496V282H277.62V260.24C277.62 258.064 277.321 256.464 276.724 255.44C276.169 254.373 274.996 253.84 273.204 253.84H272.564V251.92H278.9C280.351 251.92 281.481 252.112 282.292 252.496C283.145 252.837 283.807 253.435 284.276 254.288C286.58 252.283 289.268 251.28 292.34 251.28C294.175 251.28 295.689 251.707 296.884 252.56Z" fill="#100C3C"/>
<path d="M97 76.5632V106.063L112 127.563V76.5632L104.5 69.0632L97 76.5632Z" fill="#100C3C"/>
<path d="M120 53.5632V138.063L135 152.063V53.5632L127.5 46.0632L120 53.5632Z" fill="#4977ED"/>
<path d="M165 53.5632V156.563L180 143.563V53.5632L172.5 46.0632L165 53.5632Z" fill="#4977ED"/>
<path d="M143 32.5632V165.563H158V32.5632L150.5 25.0632L143 32.5632Z" fill="#100C3C"/>
<path d="M203 76.8837V107.644L188 130.063V76.8837L195.5 69.0632L203 76.8837Z" fill="#100C3C"/>
<path d="M84.5 98.0633C104.632 132.958 119.62 148.72 150.5 172.563C185.007 144.383 200.812 127.849 215.5 95.5633V19.5631C162 2.56323 138 3.06323 84.5 19.5631V98.0633Z" stroke="#4977ED" stroke-width="14"/>
<path d="M56 107.563C61.6206 164.128 95.5 195.563 145.5 196.563" stroke="#4977ED" stroke-width="3"/>
<path d="M105 206.445C113.964 211.824 127.538 212.104 134 201.065L133.631 200.689C132.829 199.87 131.896 199.175 130.832 198.747C120.255 194.49 109.519 198.76 105 206.445Z" fill="#4977ED"/>
<path d="M118.523 165.204C115.331 175.159 118.157 188.439 130.379 192.211L130.661 191.766C131.275 190.798 131.738 189.732 131.912 188.598C133.643 177.329 127.037 167.85 118.523 165.204Z" fill="#4977ED"/>
<path d="M99.6014 155.973C95.1168 165.417 96.1557 178.954 107.769 184.315L108.108 183.911C108.845 183.033 109.446 182.037 109.769 180.937C112.979 169.997 107.688 159.726 99.6014 155.973Z" fill="#4977ED"/>
<path d="M87.1011 141.501C80.6764 149.748 78.7564 163.189 88.932 170.939L89.3502 170.618C90.2602 169.921 91.0623 169.079 91.6161 168.075C97.1215 158.091 94.1826 146.917 87.1011 141.501Z" fill="#4977ED"/>
<path d="M77.9196 125.119C70.1595 132.123 65.9329 145.026 74.6068 154.427L75.0743 154.184C76.0918 153.655 77.0279 152.965 77.7477 152.073C84.9045 143.197 83.9521 131.683 77.9196 125.119Z" fill="#4977ED"/>
<path d="M71.9879 103.653C63.2181 109.343 57.0051 121.415 64.084 132.068L64.584 131.902C65.6723 131.541 66.7057 131.008 67.5575 130.24C76.0273 122.608 76.9069 111.088 71.9879 103.653Z" fill="#4977ED"/>
<path d="M79.5677 194.328C87.5764 201.048 100.939 203.453 109.053 193.565L108.747 193.136C108.083 192.201 107.271 191.369 106.288 190.779C96.5096 184.916 85.2367 187.448 79.5677 194.328Z" fill="#4977ED"/>
<path d="M58.6292 172.44C64.2113 181.279 76.2066 187.64 86.9461 180.692L86.7862 180.19C86.4381 179.097 85.918 178.058 85.1608 177.196C77.6327 168.634 66.1242 167.613 58.6292 172.44Z" fill="#4977ED"/>
<path d="M41.6832 152.368C47.1153 161.3 59.0015 167.862 69.8567 161.096L69.7053 160.592C69.3758 159.493 68.8733 158.445 68.1307 157.571C60.7483 148.882 49.2586 147.667 41.6832 152.368Z" fill="#4977ED"/>
<path d="M34.4628 125.937C37.3694 135.979 47.1255 145.422 59.3724 141.731L59.3582 141.204C59.3274 140.058 59.1167 138.915 58.6286 137.877C53.7758 127.56 43.0039 123.382 34.4628 125.937Z" fill="#4977ED"/>
<path d="M30.8989 99.678C31.954 110.079 39.8546 121.121 52.5653 119.691L52.646 119.17C52.8216 118.037 52.8198 116.874 52.5261 115.766C49.606 104.745 39.7602 98.6992 30.8989 99.678Z" fill="#4977ED"/>
<path d="M59.0114 70.4978C51.1681 79.5516 46.9167 95.1948 55.7224 105.385L56.4304 104.884C57.305 104.266 58.0861 103.517 58.6781 102.624C66.1455 91.3618 65.197 77.6873 59.0114 70.4978Z" fill="#4977ED"/>
<path d="M243.5 108.017C237.879 164.582 204 196.017 154 197.017" stroke="#4977ED" stroke-width="3"/>
<path d="M194.5 206.899C185.536 212.278 171.962 212.558 165.5 201.519L165.869 201.143C166.671 200.324 167.604 199.63 168.668 199.201C179.245 194.944 189.981 199.214 194.5 206.899Z" fill="#4977ED"/>
<path d="M180.977 165.658C184.169 175.613 181.343 188.893 169.121 192.665L168.839 192.22C168.225 191.252 167.762 190.186 167.588 189.052C165.857 177.783 172.463 168.305 180.977 165.658Z" fill="#4977ED"/>
<path d="M199.899 156.428C204.383 165.871 203.344 179.408 191.731 184.769L191.392 184.365C190.655 183.487 190.054 182.491 189.731 181.391C186.521 170.451 191.812 160.18 199.899 156.428Z" fill="#4977ED"/>
<path d="M212.399 141.955C218.824 150.202 220.744 163.643 210.568 171.393L210.15 171.073C209.24 170.375 208.438 169.533 207.884 168.529C202.378 158.545 205.317 147.371 212.399 141.955Z" fill="#4977ED"/>
<path d="M221.58 125.573C229.341 132.578 233.567 145.48 224.893 154.881L224.426 154.638C223.408 154.109 222.472 153.419 221.752 152.527C214.596 143.651 215.548 132.137 221.58 125.573Z" fill="#4977ED"/>
<path d="M227.512 104.107C236.282 109.797 242.495 121.869 235.416 132.523L234.916 132.357C233.828 131.995 232.794 131.462 231.942 130.695C223.473 123.062 222.593 111.542 227.512 104.107Z" fill="#4977ED"/>
<path d="M219.932 194.783C211.924 201.502 198.561 203.907 190.447 194.019L190.753 193.59C191.417 192.655 192.229 191.823 193.212 191.233C202.99 185.37 214.263 187.902 219.932 194.783Z" fill="#4977ED"/>
<path d="M240.871 172.894C235.289 181.733 223.293 188.094 212.554 181.146L212.714 180.644C213.062 179.551 213.582 178.512 214.339 177.65C221.867 169.088 233.376 168.067 240.871 172.894Z" fill="#4977ED"/>
<path d="M257.817 152.822C252.385 161.754 240.498 168.316 229.643 161.55L229.795 161.046C230.124 159.947 230.627 158.899 231.369 158.025C238.752 149.337 250.241 148.122 257.817 152.822Z" fill="#4977ED"/>
<path d="M265.037 126.391C262.131 136.433 252.375 145.876 240.128 142.185L240.142 141.658C240.173 140.512 240.383 139.369 240.871 138.331C245.724 128.014 256.496 123.836 265.037 126.391Z" fill="#4977ED"/>
<path d="M268.601 100.132C267.546 110.533 259.645 121.575 246.935 120.145L246.854 119.624C246.678 118.491 246.68 117.328 246.974 116.22C249.894 105.199 259.74 99.1533 268.601 100.132Z" fill="#4977ED"/>
<path d="M240.489 70.9519C248.332 80.0057 252.583 95.6489 243.778 105.839L243.07 105.338C242.195 104.72 241.414 103.971 240.822 103.078C233.355 91.8159 234.303 78.1414 240.489 70.9519Z" fill="#4977ED"/>
</svg>
